# xmcd
#
# Track frame offsets:
#	150
#	13610
#	23142
#	34276
#	47287
#	56242
#	68175
#	78603
#	91561
#	101133
#	112078
#	123016
#	133755
#	145356
#	157578
#	171366
#
# Disc length: 2430 seconds
#
# Revision: 1
# Processed by: cddbd v1.5.1PL2 Copyright (c) Steve Scherf et al.
# Submitted via: audiograbber 1.83.01
#
DISCID=d1097c10
DTITLE=The Shadows - The Best Of The Shadows
DYEAR=1900
DGENRE=
TTITLE0=Apache 1960
TTITLE1=Man Of Mystery 1960
TTITLE2=The Frightened City 1961
TTITLE3=The Rise And Fall Of Flingel Bunt 1964
TTITLE4=Kon Tiki 1961
TTITLE5=Foot Tapper 1961
TTITLE6=A Place In The Sun 1966
TTITLE7=Atlantis 1963
TTITLE8=Wonderful Land 1962
TTITLE9=FBI 1961
TTITLE10=Geronimo 1963
TTITLE11=Shindig 1963
TTITLE12=Stingray 1965
TTITLE13=Theme For Young Lovers 1964
TTITLE14=Guitar Tango 1962
TTITLE15=Dance On 1962
EXTD=Schallplatte
EXTT0=
EXTT1=
EXTT2=
EXTT3=
EXTT4=
EXTT5=
EXTT6=
EXTT7=
EXTT8=
EXTT9=
EXTT10=
EXTT11=
EXTT12=
EXTT13=
EXTT14=
EXTT15=
PLAYORDER=
